<svg width="322" height="244" viewBox="0 0 322 244" fill="none" xmlns="http://www.w3.org/2000/svg">
<ellipse cx="161.5" cy="122.5" rx="160.5" ry="118.5" fill="#FF53C4"/>
<g filter="url(#filter0_i_2_201)">
<path d="M128.016 231.988C129.025 232.609 130.845 232.294 131.923 232.275C138.171 232.163 143.812 230.995 149.708 228.873C158.12 225.844 166.787 222.108 174.633 217.808C182.218 213.651 188.629 207.356 194.405 201C202.713 191.858 207.801 180.741 210.674 168.799C212.2 162.459 211.688 155.345 209.697 149.179C208.073 144.148 206.433 139.501 203.904 134.847C200.762 129.065 196.147 123.971 191.576 119.285C188.735 116.373 185.867 113.348 182.549 110.965C178.949 108.381 174.947 106.272 171.13 104.027C163.146 99.3303 154.448 96.5849 145.599 94.0565" stroke="#B10A79" stroke-width="4" stroke-linecap="round"/>
<path d="M135.736 9C134.641 9.15332 135.195 12.8722 135.195 13.8165C135.195 17.8226 135.565 21.8141 133.525 25.3357C128.083 34.7288 121.548 42.9444 112.767 48.5424C108.416 51.3168 103.926 54.5288 100.087 58.1249C94.6695 63.2 91.334 71.6539 90.0089 79.2602C89.5216 82.0579 89.2655 85.0428 89.0763 87.8827C88.6582 94.1596 89.949 99.037 93.1677 104.269C96.2825 109.332 100.288 114.904 105.216 117.843C110.161 120.791 114.536 122.124 120.093 123.417C123.074 124.111 125.796 125 129.118 125C147.748 125 139.263 125 154 124.124" stroke="#B10A79" stroke-width="4" stroke-linecap="round"/>
<path d="M199.559 127.706C200.269 129.41 203.703 130.061 205.218 130.4C208.363 131.106 212.043 131.707 215.019 130.182C219.663 127.801 224.129 124.065 228.021 120.632C230.687 118.281 232.957 115.455 235.768 113.273C240.671 109.466 247.783 106.865 253.991 106.553C259.055 106.298 264.264 106.127 269.047 108.035C274.189 110.086 278.525 113.529 282.924 116.793" stroke="#B10A79" stroke-width="4" stroke-linecap="round"/>
<path d="M313.845 141.044C312.721 139.854 311.99 139.511 310.393 138.872C306.821 137.443 303.178 135.648 299.26 135.588C296.777 135.549 293.979 135.207 291.665 136.244C288.582 137.626 285.716 139.618 283.261 141.937C281.013 144.06 278.617 145.842 275.918 147.377C272.995 149.04 270.012 148.926 266.756 148.926C261.39 148.926 256.073 148.455 251.161 146.13C247.333 144.319 246.32 140.32 244.425 136.8" stroke="#B10A79" stroke-width="4" stroke-linecap="round"/>
<path d="M59.5048 37.9743C58.771 38.066 57.7258 41.7678 57.4838 42.3194C55.8208 46.1112 54.5894 50.1241 53.8798 54.2095C53.0098 59.2174 52.5519 64.2533 52.5324 69.3332C52.5144 74.0393 52.1802 78.929 52.7008 83.6148C53.3743 89.6755 55.4867 96.7639 58.427 102.14C60.2484 105.471 62.9632 108.249 64.6583 111.639" stroke="#B10A79" stroke-width="4" stroke-linecap="round"/>
<path d="M92.5 104.5C92.5 104.5 88.5 92.5385 90 98C92.76 108.049 93.2246 118.542 93.0362 128.868C92.904 136.121 91.4108 142.268 87.1922 148.236C82.7075 154.58 77.1459 159.718 70.4181 163.477" stroke="#B10A79" stroke-width="4" stroke-linecap="round"/>
<path d="M5.84778 138.013C5.84778 139.99 6.25629 141.046 8.07086 142.156C11.1046 144.012 14.7375 144.363 18.1758 144.884C23.1984 145.646 28.1949 146.406 33.2826 146.484C40.9474 146.601 48.1819 145.674 55.5302 143.352C58.4723 142.422 60.9985 141.01 63.7489 139.832" stroke="#B10A79" stroke-width="4" stroke-linecap="round"/>
<path d="M237.5 112C246.409 106.503 252.224 96.7287 253.62 86.3094C254.737 77.9773 245 74 238.5 70.5" stroke="#B10A79" stroke-width="4" stroke-linecap="round"/>
<path d="M253 80C250.164 76.3737 247.065 74.1715 243.5 72.5C236.491 69.2133 228.9 67.0287 221.471 67.0287C217.192 67.0287 212.892 66.82 208.633 67.5276C203.696 68.3479 198.941 70.6413 194 71.5188" stroke="#B10A79" stroke-width="4" stroke-linecap="round"/>
<path d="M250.184 30.3956C250.184 35.4965 247.556 39.2213 244.054 42.7236C241.109 45.6687 238.392 47.7532 234.505 49.4434C230.162 51.3314 225.299 51.0096 220.678 51.0096C214.096 51.0096 208.604 47.4958 202.22 46.395C197.381 45.5608 192.245 45.5295 187.45 46.614C183.158 47.5847 178.134 48.4839 175.038 51.9191C170.801 56.6181 169.098 63.7001 168.335 69.8047" stroke="#B10A79" stroke-width="4" stroke-linecap="round"/>
<path d="M183.492 47.3719C183.492 43.6717 182.116 36.4848 185.243 33.6629C188.028 31.1498 193.575 32.1696 196.83 32.8208" stroke="#B10A79" stroke-width="4" stroke-linecap="round"/>
<path d="M102.855 56.7694C102.855 59.0491 102.403 60.7024 103.781 62.8324C104.879 64.5289 106.672 65.088 108.581 65.4933C113.339 66.5039 117.605 65.9936 121.65 63.4386" stroke="#B10A79" stroke-width="4" stroke-linecap="round"/>
<path d="M115.5 46C115.274 45.551 115.97 45.8419 115.5 45.5C118.645 45.5 113 43.4 111 43C106 42 101.35 42.8723 97.1147 44.0175C93.0666 45.1122 89.3312 46.8527 86.1335 49.5881C83.9713 51.4377 82.3332 53.6126 80.8728 56.0364C79.1242 58.9385 79 61.7066 79 65" stroke="#B10A79" stroke-width="4" stroke-linecap="round"/>
<path d="M125 124C122.288 120.143 119.828 116.736 118.623 112.145C117.633 108.376 117.634 104.028 120.025 100.781C121.228 99.1479 122.567 97.6094 123.798 96" stroke="#B10A79" stroke-width="4" stroke-linecap="round"/>
<path d="M52 81C49.8814 82.614 47.0961 83.7803 44.7099 84.9412C40.0312 87.2175 35.8302 90.1439 32.387 94.0491C28.414 98.5552 25.4071 106.187 27.9226 112" stroke="#B10A79" stroke-width="4" stroke-linecap="round"/>
<path d="M174.5 106C173.926 105.139 162.22 97.9458 161.497 97.2227C160.5 96.2257 160.027 95.1801 159.425 94.2081C158.336 92.4478 157.719 90.2022 157.101 88.2462C155.917 84.4972 154.195 79.9933 154.087 76.0361C154 72.848 153.832 69.4134 154.592 66.3017C154.97 64.7535 155.951 63.4679 156.209 61.9229" stroke="#B10A79" stroke-width="4" stroke-linecap="round"/>
<path d="M251.5 78C252.269 78.8545 250.518 77.3129 251.5 78ZM251.5 78C252.967 79.0268 255.229 81.2624 256.82 82.0654C263.457 85.4155 271.402 83.5242 277.164 79.2023" stroke="#B10A79" stroke-width="4" stroke-linecap="round"/>
<path d="M178.945 48.8876C176.725 48.8876 174.377 49.1122 172.174 48.8202C169.325 48.4426 165.526 46.1822 163.602 44.0878C161.242 41.5174 160.242 38.0235 159.442 34.707C158.374 30.2782 157.67 25.7517 157.118 21.2338C156.585 16.8645 154.87 12.0551 155.602 7.65959" stroke="#B10A79" stroke-width="4" stroke-linecap="round"/>
</g>
<path fill-rule="evenodd" clip-rule="evenodd" d="M103.701 17L91 21.456L108.362 70.944L100.751 73.5979L83.7011 25L71 29.456L88.0414 78.0294L78.2887 81.4298L62.701 37L50 41.456L65.5791 85.8613L57.2958 88.7495L43.7092 50.0232L31.0081 54.4792L32.7416 59.4202C27.5291 63.4397 22.8003 68.6285 18.7708 74.7598C14.2193 81.6853 10.6493 89.6777 8.26453 98.2808C5.87975 106.884 4.72691 115.929 4.87183 124.9C5.01675 133.871 6.4566 142.591 9.10917 150.564C11.7617 158.537 15.5751 165.606 20.3315 171.367C25.0878 177.128 30.6941 181.468 36.8302 184.141C42.9663 186.813 49.512 187.765 56.0936 186.941C62.6752 186.118 69.1639 183.535 75.189 179.342L69.7412 162.967L81.8444 158.721L69.5448 123.663L77.8281 120.775L90.0071 155.489L102.708 151.033L90.5378 116.344L100.29 112.943L111.866 145.938L124.567 141.482L113 108.512L120.611 105.858L132.661 140.204L145.362 135.748L103.701 17Z" fill="url(#paint0_linear_2_201)"/>
<g filter="url(#filter1_i_2_201)">
<path fill-rule="evenodd" clip-rule="evenodd" d="M103.343 23L96 25.5762L112.227 71.827L98.7225 76.5355L82.5226 30.3608L75 33L91.1947 79.1602L76.2968 84.3547L60.7355 40L53 42.7139L68.5561 87.0537L56.2538 91.3431L43.1524 54L36 56.5093L69.4459 151.841L76.5983 149.331L67.0522 122.122L79.3545 117.833L88.9853 145.284L96.7209 142.57L87.0953 115.134L101.993 109.939L111.615 137.364L119.138 134.725L109.521 107.314L123.025 102.606L132.589 129.867L139.932 127.291L103.343 23ZM24.2853 87.8558C27.4194 82.285 31.2556 77.6135 35.5749 74.108L52.6133 120.515L69.6518 166.922C65.3325 170.428 60.6149 172.698 55.7682 173.605C50.9215 174.511 46.0407 174.036 41.4043 172.205C36.768 170.375 32.467 167.225 28.747 162.936C25.0269 158.647 21.9605 153.303 19.723 147.209C17.4855 141.115 16.1206 134.39 15.7063 127.418C15.292 120.446 15.8364 113.364 17.3083 106.576C18.7803 99.7877 21.1511 93.4266 24.2853 87.8558Z" fill="url(#paint1_linear_2_201)"/>
</g>
<g filter="url(#filter2_i_2_201)">
<ellipse cx="89.1792" cy="96.1766" rx="24.5" ry="9.39666" transform="rotate(-17.0759 89.1792 96.1766)" fill="url(#paint2_linear_2_201)" fill-opacity="0.56"/>
</g>
<path d="M318 122C318 153.294 300.847 181.952 272.467 202.929C244.087 223.905 204.691 237 161 237C117.309 237 77.913 223.905 49.5334 202.929C21.1527 181.952 4 153.294 4 122C4 90.7057 21.1527 62.048 49.5334 41.071C77.913 20.0947 117.309 7 161 7C204.691 7 244.087 20.0947 272.467 41.071C300.847 62.048 318 90.7057 318 122Z" stroke="url(#paint3_linear_2_201)" stroke-width="8"/>
<path d="M322 122C322 149.686 309.611 176.549 286.869 198.175C264.126 219.802 232.383 234.905 196.855 241.003C161.326 247.102 124.125 243.834 91.363 231.735C58.6014 219.636 32.2279 199.427 16.5756 174.427L161.5 122H322Z" fill="url(#paint4_linear_2_201)"/>
<mask id="path-25-inside-1_2_201" fill="white">
<path d="M322 122C322 149.686 309.611 176.549 286.869 198.175C264.126 219.802 232.383 234.905 196.855 241.003C161.326 247.102 124.125 243.834 91.363 231.735C58.6014 219.636 32.2279 199.427 16.5756 174.427L161.5 122H322Z"/>
</mask>
<path d="M322 122C322 149.686 309.611 176.549 286.869 198.175C264.126 219.802 232.383 234.905 196.855 241.003C161.326 247.102 124.125 243.834 91.363 231.735C58.6014 219.636 32.2279 199.427 16.5756 174.427L161.5 122H322Z" stroke="url(#paint5_linear_2_201)" stroke-width="30" mask="url(#path-25-inside-1_2_201)"/>
<defs>
<filter id="filter0_i_2_201" x="3.84778" y="5.65927" width="311.997" height="232.712" filterUnits="userSpaceOnUse" color-interpolation-filters="sRGB">
<feFlood flood-opacity="0" result="BackgroundImageFix"/>
<feBlend mode="normal" in="SourceGraphic" in2="BackgroundImageFix" result="shape"/>
<feColorMatrix in="SourceAlpha" type="matrix" values="0 0 0 0 0 0 0 0 0 0 0 0 0 0 0 0 0 0 127 0" result="hardAlpha"/>
<feOffset dy="4"/>
<feGaussianBlur stdDeviation="2"/>
<feComposite in2="hardAlpha" operator="arithmetic" k2="-1" k3="1"/>
<feColorMatrix type="matrix" values="0 0 0 0 0 0 0 0 0 0 0 0 0 0 0 0 0 0 0.25 0"/>
<feBlend mode="normal" in2="shape" result="effect1_innerShadow_2_201"/>
</filter>
<filter id="filter1_i_2_201" x="15.5717" y="23" width="124.36" height="155.052" filterUnits="userSpaceOnUse" color-interpolation-filters="sRGB">
<feFlood flood-opacity="0" result="BackgroundImageFix"/>
<feBlend mode="normal" in="SourceGraphic" in2="BackgroundImageFix" result="shape"/>
<feColorMatrix in="SourceAlpha" type="matrix" values="0 0 0 0 0 0 0 0 0 0 0 0 0 0 0 0 0 0 127 0" result="hardAlpha"/>
<feOffset dy="4"/>
<feGaussianBlur stdDeviation="2"/>
<feComposite in2="hardAlpha" operator="arithmetic" k2="-1" k3="1"/>
<feColorMatrix type="matrix" values="0 0 0 0 0 0 0 0 0 0 0 0 0 0 0 0 0 0 0.25 0"/>
<feBlend mode="normal" in2="shape" result="effect1_innerShadow_2_201"/>
</filter>
<filter id="filter2_i_2_201" x="65.595" y="84.6679" width="47.1684" height="27.0173" filterUnits="userSpaceOnUse" color-interpolation-filters="sRGB">
<feFlood flood-opacity="0" result="BackgroundImageFix"/>
<feBlend mode="normal" in="SourceGraphic" in2="BackgroundImageFix" result="shape"/>
<feColorMatrix in="SourceAlpha" type="matrix" values="0 0 0 0 0 0 0 0 0 0 0 0 0 0 0 0 0 0 127 0" result="hardAlpha"/>
<feOffset dy="4"/>
<feGaussianBlur stdDeviation="2"/>
<feComposite in2="hardAlpha" operator="arithmetic" k2="-1" k3="1"/>
<feColorMatrix type="matrix" values="0 0 0 0 0 0 0 0 0 0 0 0 0 0 0 0 0 0 0.25 0"/>
<feBlend mode="normal" in2="shape" result="effect1_innerShadow_2_201"/>
</filter>
<linearGradient id="paint0_linear_2_201" x1="70.2352" y1="90.2563" x2="84.1061" y2="131.19" gradientUnits="userSpaceOnUse">
<stop stop-color="#221E1E"/>
<stop offset="1" stop-color="#212020"/>
</linearGradient>
<linearGradient id="paint1_linear_2_201" x1="77.7519" y1="23" x2="126.5" y2="168" gradientUnits="userSpaceOnUse">
<stop stop-color="#323232"/>
<stop offset="1" stop-color="#423636" stop-opacity="0"/>
</linearGradient>
<linearGradient id="paint2_linear_2_201" x1="76.1549" y1="91.9911" x2="109.803" y2="116.973" gradientUnits="userSpaceOnUse">
<stop stop-color="#A9107E"/>
<stop offset="1" stop-color="#A9107E" stop-opacity="0"/>
</linearGradient>
<linearGradient id="paint3_linear_2_201" x1="180.561" y1="206.857" x2="153.92" y2="-22.0988" gradientUnits="userSpaceOnUse">
<stop/>
<stop offset="1" stop-color="#604C4C"/>
</linearGradient>
<linearGradient id="paint4_linear_2_201" x1="161" y1="122" x2="199.5" y2="244" gradientUnits="userSpaceOnUse">
<stop stop-color="#1F1E1E"/>
<stop offset="1" stop-color="#524B4B"/>
</linearGradient>
<linearGradient id="paint5_linear_2_201" x1="196.5" y1="183" x2="-61.5" y2="238" gradientUnits="userSpaceOnUse">
<stop stop-color="#1F1E1E"/>
<stop offset="0.975" stop-color="#787878"/>
</linearGradient>
</defs>
</svg>
