<svg width="321" height="244" viewBox="0 0 321 244" fill="none" xmlns="http://www.w3.org/2000/svg">
<ellipse cx="160.5" cy="122.5" rx="160.5" ry="118.5" fill="#FF53C4"/>
<g filter="url(#filter0_i_2_201)">
<path d="M127.016 231.988C128.025 232.609 129.845 232.294 130.923 232.275C137.171 232.163 142.812 230.995 148.708 228.873C157.12 225.844 165.787 222.108 173.633 217.808C181.218 213.651 187.629 207.356 193.405 201C201.713 191.858 206.801 180.741 209.674 168.799C211.2 162.459 210.688 155.345 208.697 149.179C207.073 144.148 205.433 139.501 202.904 134.847C199.762 129.065 195.147 123.971 190.576 119.285C187.735 116.373 184.867 113.348 181.549 110.965C177.949 108.381 173.947 106.272 170.13 104.027C162.146 99.3303 153.448 96.5849 144.599 94.0565" stroke="#B10A79" stroke-width="4" stroke-linecap="round"/>
<path d="M134.736 9C133.641 9.15332 134.195 12.8722 134.195 13.8165C134.195 17.8226 134.565 21.8141 132.525 25.3357C127.083 34.7288 120.548 42.9444 111.767 48.5424C107.416 51.3168 102.926 54.5288 99.087 58.1249C93.6695 63.2 90.334 71.6539 89.0089 79.2602C88.5216 82.0579 88.2655 85.0428 88.0763 87.8827C87.6582 94.1596 88.949 99.037 92.1677 104.269C95.2825 109.332 99.2883 114.904 104.216 117.843C109.161 120.791 113.536 122.124 119.093 123.417C122.074 124.111 124.796 125 128.118 125C146.748 125 138.263 125 153 124.124" stroke="#B10A79" stroke-width="4" stroke-linecap="round"/>
<path d="M198.559 127.706C199.269 129.41 202.703 130.061 204.218 130.4C207.363 131.106 211.043 131.707 214.019 130.182C218.663 127.801 223.129 124.065 227.021 120.632C229.687 118.281 231.957 115.455 234.768 113.273C239.671 109.466 246.783 106.865 252.991 106.553C258.055 106.298 263.264 106.127 268.047 108.035C273.189 110.086 277.525 113.529 281.924 116.793" stroke="#B10A79" stroke-width="4" stroke-linecap="round"/>
<path d="M312.845 141.044C311.721 139.854 310.99 139.511 309.393 138.872C305.821 137.443 302.178 135.648 298.26 135.588C295.777 135.549 292.979 135.207 290.665 136.244C287.582 137.626 284.716 139.618 282.261 141.937C280.013 144.06 277.617 145.842 274.918 147.377C271.995 149.04 269.012 148.926 265.756 148.926C260.39 148.926 255.073 148.455 250.161 146.13C246.333 144.319 245.32 140.32 243.425 136.8" stroke="#B10A79" stroke-width="4" stroke-linecap="round"/>
<path d="M58.5048 37.9743C57.771 38.066 56.7258 41.7678 56.4838 42.3194C54.8208 46.1112 53.5894 50.1241 52.8798 54.2095C52.0098 59.2174 51.5519 64.2533 51.5324 69.3332C51.5144 74.0393 51.1802 78.929 51.7008 83.6148C52.3743 89.6755 54.4867 96.7639 57.427 102.14C59.2484 105.471 61.9632 108.249 63.6583 111.639" stroke="#B10A79" stroke-width="4" stroke-linecap="round"/>
<path d="M91.5 104.5C91.5 104.5 87.5 92.5385 89 98C91.76 108.049 92.2246 118.542 92.0362 128.868C91.904 136.121 90.4108 142.268 86.1922 148.236C81.7075 154.58 76.1459 159.718 69.4181 163.477" stroke="#B10A79" stroke-width="4" stroke-linecap="round"/>
<path d="M4.84778 138.013C4.84778 139.99 5.25629 141.046 7.07086 142.156C10.1046 144.012 13.7375 144.363 17.1758 144.884C22.1984 145.646 27.1949 146.406 32.2826 146.484C39.9474 146.601 47.1819 145.674 54.5302 143.352C57.4723 142.422 59.9985 141.01 62.7489 139.832" stroke="#B10A79" stroke-width="4" stroke-linecap="round"/>
<path d="M236.5 112C245.409 106.503 251.224 96.7287 252.62 86.3094C253.737 77.9773 244 74 237.5 70.5" stroke="#B10A79" stroke-width="4" stroke-linecap="round"/>
<path d="M252 80C249.164 76.3737 246.065 74.1715 242.5 72.5C235.491 69.2133 227.9 67.0287 220.471 67.0287C216.192 67.0287 211.892 66.82 207.633 67.5276C202.696 68.3479 197.941 70.6413 193 71.5188" stroke="#B10A79" stroke-width="4" stroke-linecap="round"/>
<path d="M249.184 30.3956C249.184 35.4965 246.556 39.2213 243.054 42.7236C240.109 45.6687 237.392 47.7532 233.505 49.4434C229.162 51.3314 224.299 51.0096 219.678 51.0096C213.096 51.0096 207.604 47.4958 201.22 46.395C196.381 45.5608 191.245 45.5295 186.45 46.614C182.158 47.5847 177.134 48.4839 174.038 51.9191C169.801 56.6181 168.098 63.7001 167.335 69.8047" stroke="#B10A79" stroke-width="4" stroke-linecap="round"/>
<path d="M182.492 47.3719C182.492 43.6717 181.116 36.4848 184.243 33.6629C187.028 31.1498 192.575 32.1696 195.83 32.8208" stroke="#B10A79" stroke-width="4" stroke-linecap="round"/>
<path d="M101.855 56.7694C101.855 59.0491 101.403 60.7024 102.781 62.8324C103.879 64.5289 105.672 65.088 107.581 65.4933C112.339 66.5039 116.605 65.9936 120.65 63.4386" stroke="#B10A79" stroke-width="4" stroke-linecap="round"/>
<path d="M114.5 46C114.274 45.551 114.97 45.8419 114.5 45.5C117.645 45.5 112 43.4 110 43C105 42 100.35 42.8723 96.1147 44.0175C92.0666 45.1122 88.3312 46.8527 85.1335 49.5881C82.9713 51.4377 81.3332 53.6126 79.8728 56.0364C78.1242 58.9385 78 61.7066 78 65" stroke="#B10A79" stroke-width="4" stroke-linecap="round"/>
<path d="M124 124C121.288 120.143 118.828 116.736 117.623 112.145C116.633 108.376 116.634 104.028 119.025 100.781C120.228 99.1479 121.567 97.6094 122.798 96" stroke="#B10A79" stroke-width="4" stroke-linecap="round"/>
<path d="M51 81C48.8814 82.614 46.0961 83.7803 43.7099 84.9412C39.0312 87.2175 34.8302 90.1439 31.387 94.0491C27.414 98.5552 24.4071 106.187 26.9226 112" stroke="#B10A79" stroke-width="4" stroke-linecap="round"/>
<path d="M173.5 106C172.926 105.139 161.22 97.9458 160.497 97.2227C159.5 96.2257 159.027 95.1801 158.425 94.2081C157.336 92.4478 156.719 90.2022 156.101 88.2462C154.917 84.4972 153.195 79.9933 153.087 76.0361C153 72.848 152.832 69.4134 153.592 66.3017C153.97 64.7535 154.951 63.4679 155.209 61.9229" stroke="#B10A79" stroke-width="4" stroke-linecap="round"/>
<path d="M250.5 78C251.269 78.8545 249.518 77.3129 250.5 78ZM250.5 78C251.967 79.0268 254.229 81.2624 255.82 82.0654C262.457 85.4155 270.402 83.5242 276.164 79.2023" stroke="#B10A79" stroke-width="4" stroke-linecap="round"/>
<path d="M177.945 48.8876C175.725 48.8876 173.377 49.1122 171.174 48.8202C168.325 48.4426 164.526 46.1822 162.602 44.0878C160.242 41.5174 159.242 38.0235 158.442 34.707C157.374 30.2782 156.67 25.7517 156.118 21.2338C155.585 16.8645 153.87 12.0551 154.602 7.65959" stroke="#B10A79" stroke-width="4" stroke-linecap="round"/>
</g>
<path fill-rule="evenodd" clip-rule="evenodd" d="M102.701 17L90 21.456L107.362 70.944L99.751 73.5979L82.7011 25L70 29.456L87.0414 78.0294L77.2887 81.4298L61.701 37L49 41.456L64.5791 85.8613L56.2958 88.7495L43.1978 51.4159L30.4967 55.8719L32.3973 61.2891C27.8623 65.1721 23.7291 70.0391 20.1617 75.7093C15.8198 82.6104 12.4011 90.566 10.1007 99.122C7.80029 107.678 6.66325 116.667 6.75451 125.575C6.84576 134.483 8.16352 143.136 10.6325 151.041C13.1016 158.945 16.6735 165.946 21.1444 171.643C25.6153 177.34 30.8976 181.622 36.6897 184.244C42.4818 186.867 48.6703 187.778 54.9019 186.927C61.1334 186.075 67.286 183.478 73.0083 179.282L66.6314 158.867L68.1434 163.177L80.8444 158.721L68.5448 123.663L76.8281 120.775L89.0071 155.489L101.708 151.033L89.5378 116.344L99.2904 112.943L110.866 145.938L123.567 141.482L112 108.512L119.611 105.858L131.661 140.204L144.362 135.748L102.701 17Z" fill="url(#paint0_linear_2_201)"/>
<g filter="url(#filter1_i_2_201)">
<path fill-rule="evenodd" clip-rule="evenodd" d="M102.343 23L95 25.5762L111.227 71.827L97.7224 76.5355L81.5226 30.3608L74 33L90.1947 79.1602L75.2968 84.3547L59.7355 40L52 42.7139L67.5561 87.0537L55.2538 91.3431L42.1524 54L35 56.5093L68.4459 151.841L75.5983 149.331L66.0522 122.122L78.3545 117.833L87.9853 145.284L95.7209 142.57L86.0953 115.134L100.993 109.939L110.615 137.364L118.138 134.725L108.521 107.314L122.025 102.606L131.589 129.867L138.932 127.291L102.343 23ZM23.2853 87.8558C26.4194 82.285 30.2556 77.6135 34.5749 74.108L51.6133 120.515L68.6518 166.922C64.3325 170.428 59.6149 172.698 54.7682 173.605C49.9215 174.511 45.0407 174.036 40.4043 172.205C35.768 170.375 31.467 167.225 27.747 162.936C24.0269 158.647 20.9605 153.303 18.723 147.209C16.4855 141.115 15.1206 134.39 14.7063 127.418C14.292 120.446 14.8364 113.364 16.3083 106.576C17.7803 99.7877 20.1511 93.4266 23.2853 87.8558Z" fill="url(#paint1_linear_2_201)"/>
</g>
<g filter="url(#filter2_i_2_201)">
<ellipse cx="88.1792" cy="96.1766" rx="24.5" ry="9.39666" transform="rotate(-17.0759 88.1792 96.1766)" fill="url(#paint2_linear_2_201)" fill-opacity="0.56"/>
</g>
<path d="M317 122.5C317 153.654 299.905 182.187 271.615 203.074C243.326 223.961 204.054 237 160.5 237C116.946 237 77.6745 223.961 49.3852 203.074C21.0948 182.187 4 153.654 4 122.5C4 91.3457 21.0948 62.8132 49.3852 41.9258C77.6745 21.0393 116.946 8 160.5 8C204.054 8 243.326 21.0393 271.615 41.9258C299.905 62.8132 317 91.3457 317 122.5Z" stroke="url(#paint3_linear_2_201)" stroke-width="8"/>
<path d="M321 122C321 149.686 308.611 176.549 285.869 198.175C263.126 219.802 231.383 234.905 195.855 241.003C160.326 247.102 123.125 243.834 90.363 231.735C57.6014 219.636 31.2279 199.427 15.5756 174.427L160.5 122H321Z" fill="url(#paint4_linear_2_201)"/>
<mask id="path-25-inside-1_2_201" fill="white">
<path d="M321 122C321 149.686 308.611 176.549 285.869 198.175C263.126 219.802 231.383 234.905 195.855 241.003C160.326 247.102 123.125 243.834 90.363 231.735C57.6014 219.636 31.2279 199.427 15.5756 174.427L160.5 122H321Z"/>
</mask>
<path d="M321 122C321 149.686 308.611 176.549 285.869 198.175C263.126 219.802 231.383 234.905 195.855 241.003C160.326 247.102 123.125 243.834 90.363 231.735C57.6014 219.636 31.2279 199.427 15.5756 174.427L160.5 122H321Z" stroke="url(#paint5_linear_2_201)" stroke-width="30" mask="url(#path-25-inside-1_2_201)"/>
<defs>
<filter id="filter0_i_2_201" x="2.84778" y="5.65927" width="311.997" height="232.712" filterUnits="userSpaceOnUse" color-interpolation-filters="sRGB">
<feFlood flood-opacity="0" result="BackgroundImageFix"/>
<feBlend mode="normal" in="SourceGraphic" in2="BackgroundImageFix" result="shape"/>
<feColorMatrix in="SourceAlpha" type="matrix" values="0 0 0 0 0 0 0 0 0 0 0 0 0 0 0 0 0 0 127 0" result="hardAlpha"/>
<feOffset dy="4"/>
<feGaussianBlur stdDeviation="2"/>
<feComposite in2="hardAlpha" operator="arithmetic" k2="-1" k3="1"/>
<feColorMatrix type="matrix" values="0 0 0 0 0 0 0 0 0 0 0 0 0 0 0 0 0 0 0.25 0"/>
<feBlend mode="normal" in2="shape" result="effect1_innerShadow_2_201"/>
</filter>
<filter id="filter1_i_2_201" x="14.5717" y="23" width="124.36" height="155.052" filterUnits="userSpaceOnUse" color-interpolation-filters="sRGB">
<feFlood flood-opacity="0" result="BackgroundImageFix"/>
<feBlend mode="normal" in="SourceGraphic" in2="BackgroundImageFix" result="shape"/>
<feColorMatrix in="SourceAlpha" type="matrix" values="0 0 0 0 0 0 0 0 0 0 0 0 0 0 0 0 0 0 127 0" result="hardAlpha"/>
<feOffset dy="4"/>
<feGaussianBlur stdDeviation="2"/>
<feComposite in2="hardAlpha" operator="arithmetic" k2="-1" k3="1"/>
<feColorMatrix type="matrix" values="0 0 0 0 0 0 0 0 0 0 0 0 0 0 0 0 0 0 0.25 0"/>
<feBlend mode="normal" in2="shape" result="effect1_innerShadow_2_201"/>
</filter>
<filter id="filter2_i_2_201" x="64.595" y="84.6679" width="47.1684" height="27.0173" filterUnits="userSpaceOnUse" color-interpolation-filters="sRGB">
<feFlood flood-opacity="0" result="BackgroundImageFix"/>
<feBlend mode="normal" in="SourceGraphic" in2="BackgroundImageFix" result="shape"/>
<feColorMatrix in="SourceAlpha" type="matrix" values="0 0 0 0 0 0 0 0 0 0 0 0 0 0 0 0 0 0 127 0" result="hardAlpha"/>
<feOffset dy="4"/>
<feGaussianBlur stdDeviation="2"/>
<feComposite in2="hardAlpha" operator="arithmetic" k2="-1" k3="1"/>
<feColorMatrix type="matrix" values="0 0 0 0 0 0 0 0 0 0 0 0 0 0 0 0 0 0 0.25 0"/>
<feBlend mode="normal" in2="shape" result="effect1_innerShadow_2_201"/>
</filter>
<linearGradient id="paint0_linear_2_201" x1="69.2352" y1="90.2563" x2="83.1061" y2="131.19" gradientUnits="userSpaceOnUse">
<stop stop-color="#221E1E"/>
<stop offset="1" stop-color="#212020"/>
</linearGradient>
<linearGradient id="paint1_linear_2_201" x1="76.7519" y1="23" x2="125.5" y2="168" gradientUnits="userSpaceOnUse">
<stop stop-color="#323232"/>
<stop offset="1" stop-color="#423636" stop-opacity="0"/>
</linearGradient>
<linearGradient id="paint2_linear_2_201" x1="75.1549" y1="91.9911" x2="108.803" y2="116.973" gradientUnits="userSpaceOnUse">
<stop stop-color="#A9107E"/>
<stop offset="1" stop-color="#A9107E" stop-opacity="0"/>
</linearGradient>
<linearGradient id="paint3_linear_2_201" x1="180" y1="207" x2="153.5" y2="-21" gradientUnits="userSpaceOnUse">
<stop/>
<stop offset="1" stop-color="#604C4C"/>
</linearGradient>
<linearGradient id="paint4_linear_2_201" x1="160" y1="122" x2="198.5" y2="244" gradientUnits="userSpaceOnUse">
<stop stop-color="#1F1E1E"/>
<stop offset="1" stop-color="#524B4B"/>
</linearGradient>
<linearGradient id="paint5_linear_2_201" x1="195.5" y1="183" x2="-62.5" y2="238" gradientUnits="userSpaceOnUse">
<stop stop-color="#1F1E1E"/>
<stop offset="0.975" stop-color="#787878"/>
</linearGradient>
</defs>
</svg>
